<svg id="visual" viewBox="0 0 1920 1080" width="1920" height="1080" xmlns="http://www.w3.org/2000/svg" xmlns:xlink="http://www.w3.org/1999/xlink" version="1.1"><g stroke-width="1" stroke-linejoin="bevel"><path d="M855.3 522L872.3 370L644 345Z" fill="#1b384a" stroke="#1b384a"></path><path d="M644 345L615 573L855.3 522Z" fill="#0b1d2b" stroke="#0b1d2b"></path><path d="M872.3 370L820.3 199L644 345Z" fill="#22475a" stroke="#22475a"></path><path d="M820.3 199L634 177L644 345Z" fill="#1b384a" stroke="#1b384a"></path><path d="M644 345L461.7 372L615 573Z" fill="#0f2432" stroke="#0f2432"></path><path d="M634 177L461.7 372L644 345Z" fill="#0b1d2b" stroke="#0b1d2b"></path><path d="M615 573L867.3 731L855.3 522Z" fill="#1b384a" stroke="#1b384a"></path><path d="M855.3 522L1077.7 361L872.3 370Z" fill="#2a566a" stroke="#2a566a"></path><path d="M433.7 702L622 728L615 573Z" fill="#0b1d2b" stroke="#0b1d2b"></path><path d="M615 573L622 728L867.3 731Z" fill="#0f2432" stroke="#0f2432"></path><path d="M1098.7 535L1077.7 361L855.3 522Z" fill="#1b384a" stroke="#1b384a"></path><path d="M872.3 370L1095.7 191L820.3 199Z" fill="#071723" stroke="#071723"></path><path d="M461.7 372L423.7 531L615 573Z" fill="#1b384a" stroke="#1b384a"></path><path d="M1042.7 701L1098.7 535L855.3 522Z" fill="#132a3a" stroke="#132a3a"></path><path d="M867.3 731L1042.7 701L855.3 522Z" fill="#0b1d2b" stroke="#0b1d2b"></path><path d="M634 177L410.7 204L461.7 372Z" fill="#071723" stroke="#071723"></path><path d="M226.3 333L247.3 553L423.7 531Z" fill="#1f3f52" stroke="#1f3f52"></path><path d="M423.7 531L433.7 702L615 573Z" fill="#00101c" stroke="#00101c"></path><path d="M1299 333L1095.7 191L1077.7 361Z" fill="#2a566a" stroke="#2a566a"></path><path d="M1077.7 361L1095.7 191L872.3 370Z" fill="#1f3f52" stroke="#1f3f52"></path><path d="M820.3 199L832.3 0L634 177Z" fill="#173142" stroke="#173142"></path><path d="M447.7 882L669 862L622 728Z" fill="#1b384a" stroke="#1b384a"></path><path d="M622 728L669 862L867.3 731Z" fill="#2a566a" stroke="#2a566a"></path><path d="M867.3 731L1035.7 875L1042.7 701Z" fill="#1f3f52" stroke="#1f3f52"></path><path d="M1095.7 191L832.3 0L820.3 199Z" fill="#22475a" stroke="#22475a"></path><path d="M634 177L625 0L410.7 204Z" fill="#132a3a" stroke="#132a3a"></path><path d="M832.3 0L625 0L634 177Z" fill="#132a3a" stroke="#132a3a"></path><path d="M669 862L831.3 896L867.3 731Z" fill="#132a3a" stroke="#132a3a"></path><path d="M226.3 333L423.7 531L461.7 372Z" fill="#22475a" stroke="#22475a"></path><path d="M423.7 531L247.3 553L433.7 702Z" fill="#132a3a" stroke="#132a3a"></path><path d="M1314 739L1276 530L1098.7 535Z" fill="#1b384a" stroke="#1b384a"></path><path d="M831.3 896L1035.7 875L867.3 731Z" fill="#1f3f52" stroke="#1f3f52"></path><path d="M181.3 153L226.3 333L410.7 204Z" fill="#071723" stroke="#071723"></path><path d="M410.7 204L226.3 333L461.7 372Z" fill="#2a566a" stroke="#2a566a"></path><path d="M1314 739L1098.7 535L1042.7 701Z" fill="#132a3a" stroke="#132a3a"></path><path d="M1098.7 535L1276 530L1077.7 361Z" fill="#1b384a" stroke="#1b384a"></path><path d="M433.7 702L447.7 882L622 728Z" fill="#2a566a" stroke="#2a566a"></path><path d="M669 862L655 1080L831.3 896Z" fill="#1b384a" stroke="#1b384a"></path><path d="M196.3 699L447.7 882L433.7 702Z" fill="#264e62" stroke="#264e62"></path><path d="M1259 0L1084.7 0L1095.7 191Z" fill="#00101c" stroke="#00101c"></path><path d="M1095.7 191L1084.7 0L832.3 0Z" fill="#1b384a" stroke="#1b384a"></path><path d="M1276 530L1299 333L1077.7 361Z" fill="#1f3f52" stroke="#1f3f52"></path><path d="M625 0L390.7 0L410.7 204Z" fill="#00101c" stroke="#00101c"></path><path d="M1299 333L1270 171L1095.7 191Z" fill="#1b384a" stroke="#1b384a"></path><path d="M0 529L196.3 699L247.3 553Z" fill="#132a3a" stroke="#132a3a"></path><path d="M247.3 553L196.3 699L433.7 702Z" fill="#00101c" stroke="#00101c"></path><path d="M390.7 0L181.3 153L410.7 204Z" fill="#264e62" stroke="#264e62"></path><path d="M226.3 333L0 397L247.3 553Z" fill="#132a3a" stroke="#132a3a"></path><path d="M1243 885L1314 739L1042.7 701Z" fill="#00101c" stroke="#00101c"></path><path d="M1530.3 378L1467.3 168L1299 333Z" fill="#132a3a" stroke="#132a3a"></path><path d="M416.7 1080L655 1080L447.7 882Z" fill="#132a3a" stroke="#132a3a"></path><path d="M447.7 882L655 1080L669 862Z" fill="#2a566a" stroke="#2a566a"></path><path d="M831.3 896L867.3 1080L1035.7 875Z" fill="#2a566a" stroke="#2a566a"></path><path d="M1035.7 875L1243 885L1042.7 701Z" fill="#1f3f52" stroke="#1f3f52"></path><path d="M655 1080L867.3 1080L831.3 896Z" fill="#173142" stroke="#173142"></path><path d="M1467.3 168L1259 0L1270 171Z" fill="#071723" stroke="#071723"></path><path d="M1270 171L1259 0L1095.7 191Z" fill="#071723" stroke="#071723"></path><path d="M1059.7 1080L1243 885L1035.7 875Z" fill="#071723" stroke="#071723"></path><path d="M390.7 0L199.3 0L181.3 153Z" fill="#0f2432" stroke="#0f2432"></path><path d="M867.3 1080L1059.7 1080L1035.7 875Z" fill="#1b384a" stroke="#1b384a"></path><path d="M175.3 908L416.7 1080L447.7 882Z" fill="#264e62" stroke="#264e62"></path><path d="M196.3 699L175.3 908L447.7 882Z" fill="#2a566a" stroke="#2a566a"></path><path d="M0 757L175.3 908L196.3 699Z" fill="#2a566a" stroke="#2a566a"></path><path d="M0 155L226.3 333L181.3 153Z" fill="#264e62" stroke="#264e62"></path><path d="M0 155L0 397L226.3 333Z" fill="#0b1d2b" stroke="#0b1d2b"></path><path d="M0 397L0 529L247.3 553Z" fill="#173142" stroke="#173142"></path><path d="M1299 333L1467.3 168L1270 171Z" fill="#1f3f52" stroke="#1f3f52"></path><path d="M1530.3 378L1299 333L1276 530Z" fill="#0b1d2b" stroke="#0b1d2b"></path><path d="M1526.3 682L1518.3 576L1314 739Z" fill="#264e62" stroke="#264e62"></path><path d="M1314 739L1518.3 576L1276 530Z" fill="#132a3a" stroke="#132a3a"></path><path d="M1518.3 576L1530.3 378L1276 530Z" fill="#0b1d2b" stroke="#0b1d2b"></path><path d="M0 0L0 155L181.3 153Z" fill="#2a566a" stroke="#2a566a"></path><path d="M1453.3 920L1314 739L1243 885Z" fill="#0f2432" stroke="#0f2432"></path><path d="M1453.3 920L1526.3 682L1314 739Z" fill="#2a566a" stroke="#2a566a"></path><path d="M1518.3 576L1711.7 509L1530.3 378Z" fill="#173142" stroke="#173142"></path><path d="M0 529L0 757L196.3 699Z" fill="#132a3a" stroke="#132a3a"></path><path d="M0 1080L218.3 1080L175.3 908Z" fill="#22475a" stroke="#22475a"></path><path d="M175.3 908L218.3 1080L416.7 1080Z" fill="#0f2432" stroke="#0f2432"></path><path d="M1059.7 1080L1302 1080L1243 885Z" fill="#2a566a" stroke="#2a566a"></path><path d="M1302 1080L1453.3 920L1243 885Z" fill="#264e62" stroke="#264e62"></path><path d="M1671.7 0L1490.3 0L1467.3 168Z" fill="#1b384a" stroke="#1b384a"></path><path d="M1467.3 168L1490.3 0L1259 0Z" fill="#0f2432" stroke="#0f2432"></path><path d="M199.3 0L0 0L181.3 153Z" fill="#173142" stroke="#173142"></path><path d="M0 757L0 907L175.3 908Z" fill="#0b1d2b" stroke="#0b1d2b"></path><path d="M1526.3 682L1711.7 509L1518.3 576Z" fill="#264e62" stroke="#264e62"></path><path d="M1530.3 378L1698.7 207L1467.3 168Z" fill="#0b1d2b" stroke="#0b1d2b"></path><path d="M1667.7 755L1711.7 509L1526.3 682Z" fill="#173142" stroke="#173142"></path><path d="M1711.7 509L1714.7 354L1530.3 378Z" fill="#1b384a" stroke="#1b384a"></path><path d="M1302 1080L1472.3 1080L1453.3 920Z" fill="#264e62" stroke="#264e62"></path><path d="M1453.3 920L1667.7 755L1526.3 682Z" fill="#22475a" stroke="#22475a"></path><path d="M1693.7 861L1667.7 755L1453.3 920Z" fill="#00101c" stroke="#00101c"></path><path d="M1714.7 354L1698.7 207L1530.3 378Z" fill="#22475a" stroke="#22475a"></path><path d="M0 907L0 1080L175.3 908Z" fill="#1b384a" stroke="#1b384a"></path><path d="M1698.7 207L1671.7 0L1467.3 168Z" fill="#1b384a" stroke="#1b384a"></path><path d="M1674.7 1080L1693.7 861L1453.3 920Z" fill="#1f3f52" stroke="#1f3f52"></path><path d="M1920 525L1920 373L1711.7 509Z" fill="#264e62" stroke="#264e62"></path><path d="M1472.3 1080L1674.7 1080L1453.3 920Z" fill="#0b1d2b" stroke="#0b1d2b"></path><path d="M1714.7 354L1920 181L1698.7 207Z" fill="#0b1d2b" stroke="#0b1d2b"></path><path d="M1698.7 207L1920 0L1671.7 0Z" fill="#1b384a" stroke="#1b384a"></path><path d="M1711.7 509L1920 373L1714.7 354Z" fill="#22475a" stroke="#22475a"></path><path d="M1920 525L1711.7 509L1920 682Z" fill="#1f3f52" stroke="#1f3f52"></path><path d="M1711.7 509L1667.7 755L1920 682Z" fill="#1f3f52" stroke="#1f3f52"></path><path d="M1920 682L1667.7 755L1693.7 861Z" fill="#264e62" stroke="#264e62"></path><path d="M1920 897L1920 682L1693.7 861Z" fill="#132a3a" stroke="#132a3a"></path><path d="M1920 373L1920 181L1714.7 354Z" fill="#132a3a" stroke="#132a3a"></path><path d="M1920 181L1920 0L1698.7 207Z" fill="#1b384a" stroke="#1b384a"></path><path d="M1674.7 1080L1920 897L1693.7 861Z" fill="#22475a" stroke="#22475a"></path><path d="M1674.7 1080L1920 1080L1920 897Z" fill="#22475a" stroke="#22475a"></path></g></svg>